<?xml version="1.0" standalone="no"?>
<!DOCTYPE svg PUBLIC "-//W3C//DTD SVG 20010904//EN"
 "http://www.w3.org/TR/2001/REC-SVG-20010904/DTD/svg10.dtd">
<svg version="1.0" xmlns="http://www.w3.org/2000/svg"
 width="183.000000pt" height="300.000000pt" viewBox="0 0 183.000000 300.000000"
 preserveAspectRatio="xMidYMid meet">

<g transform="translate(0.000000,300.000000) scale(0.100000,-0.100000)"
fill="#e51f8f" stroke="none">
<path d="M751 2939 c-281 -55 -506 -234 -631 -503 -63 -134 -75 -190 -75 -366
0 -180 12 -235 80 -375 120 -248 320 -411 588 -479 l92 -23 3 -196 2 -197
-222 0 c-261 0 -283 -6 -307 -76 -12 -35 -12 -47 -1 -73 25 -62 40 -65 295
-71 l230 -5 5 -237 c5 -233 5 -237 29 -262 33 -35 85 -44 125 -22 59 32 61 39
64 293 l3 233 231 0 230 0 34 34 c58 58 42 141 -32 172 -25 11 -87 14 -249 14
l-215 0 0 198 0 197 78 18 c320 72 577 321 663 642 26 96 31 295 10 390 -50
227 -184 430 -366 555 -73 50 -204 108 -296 130 -90 21 -281 26 -368 9z m324
-224 c339 -86 558 -428 491 -765 -54 -267 -260 -474 -526 -526 -323 -63 -653
135 -753 451 -18 58 -22 93 -22 205 1 122 4 142 28 207 35 91 64 142 119 208
88 106 218 189 344 219 80 19 245 20 319 1z"/>
</g>
</svg>
