<?xml version="1.0" encoding="UTF-8"?>
<!DOCTYPE svg PUBLIC "-//W3C//DTD SVG 1.1//EN" "http://www.w3.org/Graphics/SVG/1.1/DTD/svg11.dtd">
<svg xmlns="http://www.w3.org/2000/svg" version="1.1" width="302px" height="300px" style="shape-rendering:geometricPrecision; text-rendering:geometricPrecision; image-rendering:optimizeQuality; fill-rule:evenodd; clip-rule:evenodd" xmlns:xlink="http://www.w3.org/1999/xlink">
<g><path style="opacity:0.948" fill="#3cacec" d="M 274.5,3.5 C 280.611,2.83784 286.278,4.0045 291.5,7C 294.602,10.5613 296.269,14.7279 296.5,19.5C 293.287,42.1598 290.12,64.8265 287,87.5C 286.446,92.7163 285.113,97.7163 283,102.5C 274.667,110.5 266.333,110.5 258,102.5C 256.077,99.456 255.244,96.1227 255.5,92.5C 256.724,82.4462 257.89,72.4462 259,62.5C 242.5,79 226,95.5 209.5,112C 238.268,153.02 241.101,195.854 218,240.5C 194.997,276.929 161.83,296.262 118.5,298.5C 61.6075,295.655 24.1075,267.322 6,213.5C -4.80235,166.578 7.36432,126.745 42.5,94C 78.5699,65.7111 118.237,59.3778 161.5,75C 169.653,78.5738 177.32,82.9071 184.5,88C 186.044,89.1871 187.711,89.5205 189.5,89C 205.5,73 221.5,57 237.5,41C 227.974,41.2105 218.474,42.0439 209,43.5C 196.564,42.6635 191.231,35.9968 193,23.5C 195.583,16.953 200.417,13.453 207.5,13C 230.011,10.0635 252.344,6.89685 274.5,3.5 Z M 106.5,97.5 C 152.128,95.0451 182.962,115.045 199,157.5C 207.884,191.806 199.717,221.306 174.5,246C 144.205,270.183 111.539,273.85 76.5,257C 40.2569,233.663 26.7569,200.829 36,158.5C 44.0932,132.072 60.9265,113.572 86.5,103C 93.2081,100.826 99.8748,98.9927 106.5,97.5 Z"/></g>
</svg>
